<svg width="100px" height="100px" viewBox="0 0 100 100" version="1.1" xmlns="http://www.w3.org/2000/svg" xmlns:xlink="http://www.w3.org/1999/xlink">
    <title>dark-theme</title>
    <g id="dark-theme" stroke="none" stroke-width="1" fill="none" fill-rule="evenodd">
        <path d="M50,99 C22.9380473,99 1,77.0619527 1,50 C1,22.9380473 22.9380473,1 50,1 C77.0619527,1 99,22.9380473 99,50 C99,77.0619527 77.0619527,99 50,99 Z" id="Combined-Shape" fill="#FFFFFF"></path>
        <g id="moon" transform="translate(20.000000, 20.025972)" fill="#000000" fill-rule="nonzero">
            <path d="M30.8384162,59.9844166 L30.5378452,59.9844166 C22.2104378,59.9207192 14.2590099,56.5083217 8.47593748,50.5161756 C-2.519141,38.75812 -2.85646652,20.5944381 7.69445303,8.43624246 C10.9763334,4.75829034 15.1021133,1.9321311 19.717291,0.200598453 C20.8171091,-0.222611202 22.0627805,0.0359243524 22.9033431,0.861854498 C23.6800251,1.65387954 23.9573279,2.80930785 23.6247134,3.86756403 C20.2617408,13.0777742 22.5352101,23.4021372 29.4557898,30.3478648 C36.438876,37.2451942 46.7650266,39.5139068 55.9962048,36.1789413 C57.0951842,35.7920931 58.3187324,36.0751923 59.1361059,36.9054379 C59.9534795,37.7356834 60.2174274,38.9635054 59.8134559,40.0563065 C58.2780238,44.1552399 55.8793851,47.8762051 52.7800957,50.9670321 C46.9573,56.7724465 39.0607436,60.0176067 30.8384162,59.9844166 L30.8384162,59.9844166 Z" id="路径"></path>
        </g>
    </g>
</svg>
