<svg width="100px" height="100px" viewBox="0 0 100 100" version="1.1" xmlns="http://www.w3.org/2000/svg" xmlns:xlink="http://www.w3.org/1999/xlink">
    <title>light-theme</title>
    <g id="light-theme" stroke="none" stroke-width="1" fill="none" fill-rule="evenodd">
        <path d="M50,99 C22.9380473,99 1,77.0619527 1,50 C1,22.9380473 22.9380473,1 50,1 C77.0619527,1 99,22.9380473 99,50 C99,77.0619527 77.0619527,99 50,99 Z" id="Combined-Shape" fill="#000"></path>
        <g id="sun-(3)" transform="translate(20.001871, 20.000000)" fill="#fff" fill-rule="nonzero">
            <path d="M29.5054382,47.4734586 C35.7473874,47.6510827 41.6099164,44.4850587 44.8845325,39.1680699 C48.1591486,33.8510812 48.3483235,27.1909635 45.3807926,21.6966719 C42.4132616,16.2023803 36.7398961,12.7086891 30.4979284,12.5317183 C24.2559792,12.3540942 18.3934502,15.5201182 15.1188341,20.837107 C11.844218,26.1540957 11.6550431,32.8142134 14.622574,38.308505 C17.590105,43.8027966 23.2634705,47.2964878 29.5054382,47.4734586 Z" id="路径"></path>
            <path d="M29.7476836,9.92364874 C30.9227003,9.92364874 31.875253,8.97109601 31.875253,7.7960793 L31.875253,2.12756944 C31.875253,0.95255273 30.9227003,0 29.7476836,0 C28.5726669,0 27.6201141,0.95255273 27.6201141,2.12756944 L27.6201141,7.7960793 C27.6201141,8.97109601 28.5726669,9.92364874 29.7476836,9.92364874 Z M45.1499566,16.291996 C45.6942154,16.3074208 46.2443916,16.1152747 46.6714347,15.7117679 L50.7918053,11.8187812 C51.645825,11.011834 51.6840548,9.66521554 50.8771076,8.81112938 C50.0700274,7.95704322 48.7235419,7.91881346 47.8694557,8.72582714 L43.7490851,12.6188138 C42.8950654,13.425761 42.8568356,14.7723795 43.6637828,15.6264656 C44.0672897,16.0534422 44.6056977,16.2765046 45.1499566,16.291996 L45.1499566,16.291996 Z M57.9327262,28.1924891 L52.2664769,28.0317912 C51.0919256,27.9984814 50.1127782,28.9236417 50.0794685,30.098193 C50.0461587,31.2727443 50.971319,32.2519581 52.1458703,32.2852679 L57.8121196,32.4459659 C58.9866709,32.4792756 59.9658183,31.5540489 59.999128,30.379564 C60.0324378,29.2049463 59.1072775,28.2257989 57.9327262,28.1924891 Z M47.1374389,44.3533736 C46.3304917,43.4992875 44.9838732,43.4611242 44.129787,44.2680049 C43.2757009,45.0750186 43.2374711,46.4215706 44.0444183,47.2756568 L47.9373385,51.3959609 C48.3408453,51.8230705 48.8791869,52.0461328 49.4235122,52.0615577 C49.9677046,52.0769826 50.5180137,51.88477 50.9449903,51.4813296 C51.7990765,50.674316 51.8373063,49.327764 51.0303591,48.4736778 L47.1374389,44.3533736 Z M29.9029961,50.0805911 C28.7284448,50.0472814 27.7492975,50.9724416 27.7159877,52.1469929 L27.5552897,57.8132422 C27.52198,58.9877936 28.4471403,59.9669409 29.6216916,60.0002507 C30.7962429,60.0335604 31.7753902,59.1084001 31.8087,57.9338488 L31.9693979,52.2675995 C32.0027077,51.0931147 31.0775474,50.1139009 29.9029961,50.0805911 Z M12.7254659,44.0455409 L8.60516171,47.9385276 C7.75107555,48.7455413 7.71291227,50.0920933 8.51985947,50.9461794 C8.92336631,51.3733555 9.46164138,51.5963514 10.0060332,51.6117762 C10.5502256,51.6272011 11.1004682,51.4349885 11.5275113,51.0315482 L15.6478155,47.1385615 C16.5019016,46.3315478 16.5400649,44.9849958 15.7331177,44.1309097 C14.926104,43.2766905 13.579552,43.2386602 12.7254659,44.0455409 Z M9.92053151,29.9041188 C9.95384127,28.7295675 9.028681,27.7504201 7.85412969,27.7171103 L2.18788038,27.5564124 C1.01332908,27.5231026 0.0341817276,28.4482629 0.00087196853,29.6228142 C-0.0324377905,30.7973655 0.892722483,31.7765128 2.06727379,31.8098226 L7.7335231,31.9705206 C8.90800792,32.0038303 9.88722175,31.0786701 9.92053151,29.9041188 Z M12.8626276,15.6489381 C13.2661345,16.0759812 13.804476,16.2990435 14.3488014,16.3144684 C14.8930602,16.3298933 15.4432364,16.1377472 15.8702795,15.7342403 C16.7243656,14.9272931 16.7625289,13.5807411 15.9555817,12.7265885 L12.062595,8.60628433 C11.2555813,7.75219818 9.90909583,7.71396841 9.05494318,8.5209821 C8.20085703,9.32792929 8.16269375,10.6745478 8.96964095,11.5286339 L12.8626276,15.6489381 L12.8626276,15.6489381 Z" id="形状"></path>
        </g>
    </g>
</svg>
