<svg t="1692778133849" class="icon" viewBox="0 0 1024 1024" version="1.1" xmlns="http://www.w3.org/2000/svg" p-id="15222" width="16" height="16"><path d="M123.26 411.37a32 32 0 1 1 45.28-45.23l311.34 311.67L479.71 97a32 32 0 0 1 32-32 32 32 0 0 1 32 32l0.17 580.89 311.59-311.76a32 32 0 0 1 45.27 45.24l-366.2 366.39-0.19 0.18-0.94 0.9-0.52 0.44-0.62 0.53-0.1 0.09-0.62 0.47-0.5 0.4c-0.05 0-0.1 0.08-0.16 0.11-0.21 0.16-0.43 0.31-0.65 0.46l-0.46 0.32-0.2 0.14-0.65 0.41-0.48 0.29a1.64 1.64 0 0 1-0.22 0.14l-0.62 0.35-0.52 0.29-0.23 0.13-0.59 0.29-0.6 0.3-0.18 0.09c-0.17 0.09-0.35 0.16-0.53 0.24l-0.71 0.3-0.19 0.08-0.48 0.18c-0.27 0.1-0.54 0.21-0.81 0.3H522.6l-0.42 0.13-0.91 0.3h-0.14l-0.39 0.11-1 0.26h-0.12l-0.38 0.08c-0.34 0.08-0.68 0.16-1 0.22h-0.06l-0.42 0.07-1 0.17h-0.09c-0.17 0-0.34 0-0.51 0.06l-0.94 0.12h-0.95l-0.75 0.05h-3.12l-0.75-0.05H508.84l-0.94-0.12c-0.17 0-0.34 0-0.51-0.06h-0.09l-1-0.17-0.42-0.07h-0.1c-0.34-0.06-0.68-0.14-1-0.22l-0.4-0.08h-0.08l-1-0.26-0.4-0.11h-0.14l-0.89-0.29-0.45-0.14-0.14-0.05c-0.26-0.09-0.53-0.19-0.79-0.3l-0.49-0.18h-0.2l-0.69-0.3-0.55-0.24-0.18-0.09-0.59-0.3-0.6-0.29-0.17-0.09h-0.05l-0.52-0.28-0.64-0.36-0.14-0.09h-0.07l-0.47-0.3c-0.22-0.14-0.45-0.27-0.67-0.42h-0.07l-0.11-0.08-0.47-0.33-0.81-0.49-0.09-0.08-0.53-0.42-0.61-0.47-0.08-0.07c-0.24-0.19-0.47-0.4-0.7-0.6l-0.46-0.4c-0.41-0.37-0.81-0.74-1.19-1.13zM896.68 895H127.32a32 32 0 1 0 0 64h769.36a32 32 0 0 0 0-64z" fill="currentColor" p-id="15223"></path></svg>