<svg viewBox="0 0 1024 1024" xmlns="http://www.w3.org/2000/svg"><path fill="currentColor" d="M434.688 470.528H193.536c-18.432 0-33.28-14.848-33.28-33.28V196.096c0-18.432 14.848-33.28 33.28-33.28h241.152c18.432 0 33.28 14.848 33.28 33.28v241.152c0 18.432-14.848 33.28-33.28 33.28z m-207.872-66.56h174.592V229.376H226.816v174.592zM819.2 470.528h-241.152c-18.432 0-33.28-14.848-33.28-33.28V196.096c0-18.432 14.848-33.28 33.28-33.28H819.2c18.432 0 33.28 14.848 33.28 33.28v241.152c0 18.432-14.848 33.28-33.28 33.28z m-207.872-66.56h174.592V229.376h-174.592v174.592zM434.688 849.92H193.536c-18.432 0-33.28-14.848-33.28-33.28v-241.152c0-18.432 14.848-33.28 33.28-33.28h241.152c18.432 0 33.28 14.848 33.28 33.28v241.152c0 18.432-14.848 33.28-33.28 33.28z m-207.872-66.56h174.592v-174.592H226.816V783.36zM819.2 849.92h-241.152c-18.432 0-33.28-14.848-33.28-33.28v-241.152c0-18.432 14.848-33.28 33.28-33.28H819.2c18.432 0 33.28 14.848 33.28 33.28v241.152c0 18.432-14.848 33.28-33.28 33.28z m-207.872-66.56h174.592v-174.592h-174.592V783.36z"></path></svg>